# https://github.com/mikedh/trimesh
v 0.00000000 0.00000000 0.00000000 1.00000000 0.50196078 0.00000000
v 0.00000000 0.00000000 0.50000000 1.00000000 0.50196078 0.00000000
v 0.00000000 0.20000000 0.00000000 1.00000000 0.50196078 0.00000000
v -0.00000000 -0.20000000 0.00000000 1.00000000 0.50196078 0.00000000
v 0.20000000 0.00000000 0.00000000 1.00000000 0.50196078 0.00000000
v -0.20000000 0.00000000 0.00000000 1.00000000 0.50196078 0.00000000
v -0.11111405 -0.16629392 0.00000000 1.00000000 0.50196078 0.00000000
v -0.11111405 0.16629392 0.00000000 1.00000000 0.50196078 0.00000000
v 0.18477591 0.07653669 0.00000000 1.00000000 0.50196078 0.00000000
v 0.18477591 -0.07653669 0.00000000 1.00000000 0.50196078 0.00000000
v 0.07653669 0.18477591 0.00000000 1.00000000 0.50196078 0.00000000
v 0.07653669 -0.18477591 0.00000000 1.00000000 0.50196078 0.00000000
v -0.19615706 0.03901806 0.00000000 1.00000000 0.50196078 0.00000000
v -0.19615706 -0.03901806 0.00000000 1.00000000 0.50196078 0.00000000
v -0.14142136 -0.14142136 0.00000000 1.00000000 0.50196078 0.00000000
v -0.14142136 0.14142136 0.00000000 1.00000000 0.50196078 0.00000000
v 0.03901806 -0.19615706 0.00000000 1.00000000 0.50196078 0.00000000
v 0.03901806 0.19615706 0.00000000 1.00000000 0.50196078 0.00000000
v -0.16629392 -0.11111405 0.00000000 1.00000000 0.50196078 0.00000000
v -0.16629392 0.11111405 0.00000000 1.00000000 0.50196078 0.00000000
v 0.16629392 -0.11111405 0.00000000 1.00000000 0.50196078 0.00000000
v 0.16629392 0.11111405 0.00000000 1.00000000 0.50196078 0.00000000
v -0.03901806 -0.19615706 0.00000000 1.00000000 0.50196078 0.00000000
v -0.03901806 0.19615706 0.00000000 1.00000000 0.50196078 0.00000000
v 0.14142136 -0.14142136 0.00000000 1.00000000 0.50196078 0.00000000
v 0.14142136 0.14142136 0.00000000 1.00000000 0.50196078 0.00000000
v 0.19615706 0.03901806 0.00000000 1.00000000 0.50196078 0.00000000
v 0.19615706 -0.03901806 0.00000000 1.00000000 0.50196078 0.00000000
v -0.07653669 0.18477591 0.00000000 1.00000000 0.50196078 0.00000000
v -0.07653669 -0.18477591 0.00000000 1.00000000 0.50196078 0.00000000
v -0.18477591 0.07653669 0.00000000 1.00000000 0.50196078 0.00000000
v -0.18477591 -0.07653669 0.00000000 1.00000000 0.50196078 0.00000000
v 0.11111405 -0.16629392 0.00000000 1.00000000 0.50196078 0.00000000
v 0.11111405 0.16629392 0.00000000 1.00000000 0.50196078 0.00000000
f 5 1 27
f 5 27 2
f 27 1 9
f 27 9 2
f 9 1 22
f 9 22 2
f 22 1 26
f 22 26 2
f 26 1 34
f 26 34 2
f 34 1 11
f 34 11 2
f 11 1 18
f 11 18 2
f 18 1 3
f 18 3 2
f 3 1 24
f 3 24 2
f 24 1 29
f 24 29 2
f 29 1 8
f 29 8 2
f 8 1 16
f 8 16 2
f 16 1 20
f 16 20 2
f 20 1 31
f 20 31 2
f 31 1 13
f 31 13 2
f 13 1 6
f 13 6 2
f 6 1 14
f 6 14 2
f 14 1 32
f 14 32 2
f 32 1 19
f 32 19 2
f 19 1 15
f 19 15 2
f 15 1 7
f 15 7 2
f 7 1 30
f 7 30 2
f 30 1 23
f 30 23 2
f 23 1 4
f 23 4 2
f 4 1 17
f 4 17 2
f 17 1 12
f 17 12 2
f 12 1 33
f 12 33 2
f 33 1 25
f 33 25 2
f 25 1 21
f 25 21 2
f 21 1 10
f 21 10 2
f 10 1 28
f 10 28 2
f 28 1 5
f 28 5 2